<mxfile host="app.diagrams.net" modified="2023-08-14T11:10:53.383Z" agent="Mozilla/5.0 (X11; Linux x86_64) AppleWebKit/537.36 (KHTML, like Gecko) Chrome/115.0.0.0 Safari/537.36 Edg/115.0.1901.188" version="21.6.8" etag="XmaU2XtkLHCpUSWcuVOd" type="github">
  <diagram name="Page-1" id="WmC59NLkMFQhjV69n-to">
    <mxGraphModel>
      <root>
        <mxCell id="0" />
        <mxCell id="1" parent="0" />
      </root>
    </mxGraphModel>
  </diagram>
</mxfile>
